#!OML:ASF F:\VICON\USERDATA\INSTALL\rory3\rory3.ASF
:FULLY-SPECIFIED
:DEGREES
405
root 12.1705 17.2617 15.3457 -3.37396 14.7756 3.39418
lowerback 5.37492 -0.588984 -5.61028
upperback -1.78123 -1.0499 3.15738
thorax -4.72502 -0.301513 6.57861
lowerneck -6.60219 -9.33141 -16.5101
upperneck 18.7172 -13.107 12.448
head 8.8526 -6.36933 5.5214
rclavicle 1.98785e-015 -1.59028e-015
rhumerus -7.38581 -15.5081 -48.0337
rradius 72.3519
rwrist -30.7474
rhand -19.782 17.9329
rfingers 7.12502
rthumb 6.5503 -11.9458
lclavicle 1.98785e-015 -1.59028e-015
lhumerus -27.3457 52.0268 53.9593
lradius 29.8101
lwrist -4.20798
lhand -22.5081 55.4387
lfingers 7.12502
lthumb 3.91815 85.3824
rfemur -4.67837 11.4179 8.55147
rtibia 40.0322
rfoot -19.7152 -16.7162
rtoes 10.7794
lfemur -11.8026 -0.301217 -19.2171
ltibia 36.8903
lfoot -16.0842 6.15447
ltoes -5.24788
406
root 12.2754 17.2728 15.4006 -3.23027 14.8139 3.47783
lowerback 5.28317 -0.400102 -5.51277
upperback -1.77559 -0.790968 3.03952
thorax -4.70897 -0.178314 6.37141
lowerneck -6.36898 -9.45241 -16.8845
upperneck 18.2499 -13.3286 12.9792
head 8.75393 -6.46595 5.74019
rclavicle -4.37326e-015 1.43125e-014
rhumerus -8.45167 -15.5838 -47.5212
rradius 74.2981
rwrist -30.7424
rhand -20.2002 18.3976
rfingers 7.12502
rthumb 6.14657 -11.4933
lclavicle -4.37326e-015 1.43125e-014
lhumerus -28.9916 51.4128 51.8839
lradius 29.1374
lwrist -4.16791
lhand -20.0584 49.8241
lfingers 7.12502
lthumb 6.28347 79.7109
rfemur -5.01097 11.6686 8.39296
rtibia 40.9438
rfoot -19.2059 -17.417
rtoes 11.7059
lfemur -11.4419 -0.384547 -19.6545
ltibia 36.5722
lfoot -16.3219 6.16167
ltoes -4.71912
407
root 12.3776 17.2857 15.4546 -3.02038 14.9237 3.7378
lowerback 5.09801 -0.247473 -5.71135
upperback -1.78087 -0.596725 2.93456
thorax -4.63858 -0.0799466 6.35284
lowerneck -6.12424 -9.72703 -16.9852
upperneck 18.1068 -13.7015 12.8593
head 8.72279 -6.66645 5.66657
rclavicle -4.1049e-014 2.14687e-014
rhumerus -9.57229 -15.5514 -46.9991
rradius 76.1979
rwrist -30.7852
rhand -20.6039 18.9478
rfingers 7.12502
rthumb 5.7568 -10.954
lclavicle -4.1049e-014 2.14687e-014
lhumerus -30.482 50.2189 50.1041
lradius 28.3244
lwrist -4.21728
lhand -16.4764 43.821
lfingers 7.12502
lthumb 9.74058 73.5758
rfemur -5.44932 11.786 8.01768
rtibia 42.0101
rfoot -18.8047 -18.024
rtoes 12.8196
lfemur -11.1351 -0.419876 -20.2765
ltibia 36.2547
lfoot -16.4519 6.20478
ltoes -4.48877
408
root 12.4696 17.3012 15.5022 -2.77731 14.9794 3.8495
lowerback 4.90259 -0.0999468 -5.90512
upperback -1.78364 -0.404426 2.89543
thorax -4.55986 0.0180104 6.40262
lowerneck -6.14644 -10.0828 -17.0673
upperneck 18.3753 -14.1781 12.6731
head 8.891 -6.90774 5.54325
rclavicle 3.33958e-014 1.27222e-014
rhumerus -10.7065 -15.5747 -46.5984
rradius 78.0537
rwrist -30.6598
rhand -20.7121 19.535
rfingers 7.12502
rthumb 5.65229 -10.3697
lclavicle 3.33958e-014 1.27222e-014
lhumerus -31.8551 49.1813 48.4819
lradius 27.4827
lwrist -4.84342
lhand -21.4967 52.725
lfingers 7.12502
lthumb 4.89473 82.6485
rfemur -6.17225 11.9189 7.82534
rtibia 43.2325
rfoot -18.3222 -18.6024
rtoes 15.0601
lfemur -10.9764 -0.369801 -20.6685
ltibia 35.9808
lfoot -16.5952 6.15353
ltoes -3.96903
409
root 12.5534 17.3193 15.541 -2.493 14.9206 3.66803
lowerback 4.84924 0.108467 -5.79396
upperback -1.90647 -0.115221 2.91303
thorax -4.70325 0.168028 6.33354
lowerneck -6.3093 -10.3171 -17.1839
upperneck 18.6799 -14.4817 12.5931
head 9.07982 -7.05598 5.4813
rclavicle 4.37326e-015 -1.43125e-014
rhumerus -11.97 -15.6357 -46.1957
rradius 79.7028
rwrist -30.168
rhand -20.7948 20.182
rfingers 7.12502
rthumb 5.57243 -9.72475
lclavicle 4.37326e-015 -1.43125e-014
lhumerus -32.9342 47.0639 47.6009
lradius 27.1406
lwrist -4.72163
lhand -19.2196 48.403
lfingers 7.12502
lthumb 7.09319 78.2641
rfemur -7.21206 12.1226 7.98494
rtibia 44.6002
rfoot -17.6201 -19.2776
rtoes 18.0253
lfemur -11.0069 -0.308661 -20.6975
ltibia 35.7509
lfoot -16.7864 6.00362
ltoes -2.58399
410
root 12.6343 17.3324 15.5762 -2.11935 14.9543 3.68562
lowerback 4.66964 0.274295 -5.94692
upperback -1.89873 0.10705 2.93632
thorax -4.62864 0.280858 6.42524
lowerneck -6.83061 -10.5503 -17.3788
upperneck 18.8655 -14.7108 12.5599
head 9.29317 -7.1557 5.43911
rclavicle 5.23798e-014 -2.70347e-014
rhumerus -13.005 -15.7493 -45.8238
rradius 81.2225
rwrist -29.5538
rhand -20.736 20.5686
rfingers 7.12502
rthumb 5.62924 -9.33665
lclavicle 5.23798e-014 -2.70347e-014
lhumerus -34.1067 46.846 46.0972
lradius 26.2313
lwrist -6.63012
lhand -16.7715 43.5708
lfingers 7.12502
lthumb 9.45579 73.3387
rfemur -8.33644 12.1333 7.92016
rtibia 46.0638
rfoot -16.5395 -19.9743
rtoes 20.5385
lfemur -11.097 -0.213558 -20.942
ltibia 35.5421
lfoot -17.0022 5.79376
ltoes -1.79797
411
root 12.722 17.3345 15.6158 -1.77632 15.2117 4.00847
lowerback 4.45905 0.302653 -6.36062
upperback -1.78473 0.12868 2.88204
thorax -4.39588 0.290503 6.60076
lowerneck -7.19363 -10.7046 -17.7601
upperneck 18.8743 -14.8801 12.8577
head 9.45029 -7.2201 5.55843
rclavicle -3.69739e-014 -9.54166e-015
rhumerus -13.9552 -15.5781 -45.6455
rradius 82.8713
rwrist -29.4485
rhand -21.053 20.8708
rfingers 7.12502
rthumb 5.32316 -9.04238
lclavicle -3.69739e-014 -9.54166e-015
lhumerus -36.3369 49.5958 42.6015
lradius 24.4292
lwrist -11.6623
lhand -16.8057 44.4595
lfingers 7.12502
lthumb 9.42286 74.2289
rfemur -9.3443 11.6007 7.40599
rtibia 47.5719
rfoot -15.2066 -20.2479
rtoes 23.4295
lfemur -11.01 -0.255188 -21.5692
ltibia 35.3144
lfoot -17.1968 5.62658
ltoes -1.50569
412
root 12.8117 17.331 15.6672 -1.67139 15.4885 4.22814
lowerback 4.48079 0.330943 -6.60384
upperback -1.7424 0.145937 2.77666
thorax -4.36816 0.301813 6.62658
lowerneck -7.02374 -10.7515 -18.029
upperneck 18.6757 -14.9911 13.2024
head 9.42147 -7.26934 5.71103
rclavicle -1.37161e-014 -3.18055e-015
rhumerus -15.1798 -14.9271 -45.5323
rradius 84.5925
rwrist -29.6987
rhand -22.1212 21.2322
rfingers 7.12502
rthumb 4.29174 -8.70433
lclavicle -1.37161e-014 -3.18055e-015
lhumerus -38.0349 49.3053 40.5123
lradius 23.5438
lwrist -13.7866
lhand -14.8255 40.1964
lfingers 7.12502
lthumb 11.333 69.8702
rfemur -10.0954 10.9445 7.03076
rtibia 49.0675
rfoot -14.1749 -20.4065
rtoes 26.1666
lfemur -10.6235 -0.279078 -22.081
ltibia 35.0593
lfoot -17.3262 5.43909
ltoes -0.979008
